<?xml version="1.0" standalone="no"?>
<!DOCTYPE svg PUBLIC "-//W3C//DTD SVG 20010904//EN"
 "http://www.w3.org/TR/2001/REC-SVG-20010904/DTD/svg10.dtd">
<svg version="1.0" xmlns="http://www.w3.org/2000/svg"
 width="437.000000pt" height="293.000000pt" viewBox="0 0 437.000000 293.000000"
 preserveAspectRatio="xMidYMid meet">

<g transform="translate(0.000000,293.000000) scale(0.100000,-0.100000)"
fill="#000000" stroke="none">
<path d="M1610 1459 l0 -150 33 3 c32 3 32 4 35 61 l3 57 59 0 c60 0 60 0 60
30 l0 30 -60 0 c-60 0 -60 0 -60 30 0 29 0 29 68 32 65 3 67 4 70 31 l3 27
-105 0 -106 0 0 -151z"/>
<path d="M3022 1467 c-29 -78 -53 -145 -52 -149 0 -5 13 -8 29 -8 25 0 32 6
42 35 13 34 14 35 70 35 55 0 56 -1 65 -32 8 -27 15 -34 42 -36 18 -2 32 0 32
5 0 4 -23 72 -52 150 l-53 143 -35 0 -35 0 -53 -143z m106 14 c16 -52 17 -51
-22 -51 l-35 0 16 45 c8 25 18 45 22 45 4 0 13 -17 19 -39z"/>
<path d="M3280 1460 l0 -150 30 0 c30 0 30 1 30 55 l0 55 59 0 c78 0 111 28
111 94 0 37 -5 48 -31 70 -28 23 -39 26 -115 26 l-84 0 0 -150z m151 90 c21
-12 25 -50 7 -68 -7 -7 -31 -12 -55 -12 l-43 0 0 38 c0 21 3 42 7 45 10 11 62
8 84 -3z"/>
<path d="M3552 1463 l3 -148 33 -3 32 -3 0 150 0 151 -35 0 -36 0 3 -147z"/>
<path d="M1235 1553 l-109 -35 -48 17 c-46 16 -138 22 -158 10 -19 -12 -10
-44 16 -62 23 -15 35 -15 102 -6 55 8 82 8 97 1 33 -18 85 -60 85 -69 0 -4
-18 -13 -39 -20 -32 -9 -47 -9 -87 5 -56 19 -76 20 -92 4 -31 -31 45 -71 126
-67 28 2 49 -5 83 -28 82 -56 154 -65 135 -18 -4 13 -13 15 -36 10 -23 -5 -41
0 -75 20 -25 14 -45 30 -45 34 0 18 61 34 103 27 103 -17 125 -18 146 -7 24
14 28 53 6 71 -18 15 -71 15 -135 0 -49 -12 -52 -11 -105 21 l-55 33 107 38
c120 41 145 45 163 23 16 -19 30 -19 30 0 0 20 -32 35 -72 34 -18 -1 -82 -17
-143 -36z m-166 -35 l26 -11 -25 -7 c-31 -10 -103 -12 -124 -4 -24 9 -19 32 7
37 28 6 81 -1 116 -15z m376 -98 c11 -17 -15 -40 -44 -40 -40 0 -105 21 -95
30 21 19 129 27 139 10z m-341 -50 c8 -8 -1 -10 -38 -8 -31 2 -51 8 -54 17 -4
11 4 13 38 8 23 -3 48 -11 54 -17z"/>
<path d="M1850 1419 l0 -110 28 3 c26 3 27 5 30 68 3 71 20 100 59 100 18 0
23 5 23 25 0 20 -5 25 -24 25 -13 0 -29 -7 -37 -16 -11 -14 -13 -14 -21 0 -5
9 -20 16 -33 16 l-25 0 0 -111z"/>
<path d="M2036 1509 c-14 -11 -26 -27 -26 -35 0 -19 56 -19 64 1 3 9 18 15 36
15 27 0 31 -3 28 -22 -2 -19 -11 -24 -50 -28 -79 -10 -113 -65 -68 -110 22
-22 78 -27 111 -10 13 8 19 7 19 0 0 -6 12 -10 27 -8 l26 3 -2 90 c-3 111 -12
125 -86 125 -38 0 -60 -6 -79 -21z m104 -118 c0 -25 -24 -43 -52 -39 -31 4
-36 36 -6 47 38 16 58 13 58 -8z"/>
<path d="M2250 1385 l0 -145 30 0 c29 0 30 1 30 47 0 37 3 44 12 35 20 -20 74
-14 106 13 48 40 48 130 0 175 -25 23 -87 27 -107 8 -11 -10 -14 -10 -18 0 -3
6 -16 12 -29 12 l-24 0 0 -145z m140 90 c20 -24 16 -96 -6 -112 -22 -16 -35
-16 -58 0 -21 15 -25 89 -6 112 16 19 54 19 70 0z"/>
<path d="M2500 1385 l0 -145 30 0 c29 0 30 2 30 45 0 42 2 45 19 35 52 -28
112 -2 131 56 26 79 -17 154 -89 154 -22 0 -43 -5 -47 -11 -4 -8 -9 -8 -17 0
-6 6 -21 11 -34 11 -23 0 -23 0 -23 -145z m144 83 c9 -12 16 -35 16 -50 0 -28
-30 -68 -52 -68 -25 0 -48 34 -48 71 0 63 52 92 84 47z"/>
<path d="M2778 1501 c-29 -26 -33 -35 -33 -81 0 -46 4 -55 33 -81 43 -39 111
-41 147 -4 14 13 25 29 25 35 0 15 -42 12 -64 -5 -27 -20 -42 -19 -66 5 -34
34 -24 40 61 40 70 0 80 2 75 16 -3 9 -6 22 -6 31 0 8 -13 28 -29 44 -41 41
-98 41 -143 0z m102 -26 c18 -22 9 -27 -41 -23 -41 3 -42 4 -25 21 22 21 49
22 66 2z"/>
</g>
</svg>
